HIERARCHY
ROOT hip
{
  OFFSET 0 0 0
  CHANNELS 6 Xposition Yposition Zposition Zrotation Yrotation Xrotation
  JOINT abdomen
  {
    OFFSET 0 20.6881 -0.73152
    CHANNELS 3 Zrotation Xrotation Yrotation
    JOINT chest
    {
      OFFSET 0 11.7043 -0.48768
      CHANNELS 3 Zrotation Xrotation Yrotation
      JOINT neck
      {
        OFFSET 0 22.1894 -2.19456
        CHANNELS 3 Zrotation Xrotation Yrotation
        JOINT head
        {
          OFFSET -0.24384 7.07133 1.2192
          CHANNELS 3 Zrotation Xrotation Yrotation
          JOINT leftEye
          {
            OFFSET 4.14528 8.04674 8.04672
            CHANNELS 3 Zrotation Xrotation Yrotation
            End Site
            {
              OFFSET 1 0 0
            }
          }
          JOINT rightEye
          {
            OFFSET -3.6576 8.04674 8.04672
            CHANNELS 3 Zrotation Xrotation Yrotation
            End Site
            {
              OFFSET 1 0 0
            }
          }
        }
      }
      JOINT rCollar
      {
        OFFSET -2.68224 19.2634 -4.8768
        CHANNELS 3 Zrotation Xrotation Yrotation
        JOINT rShldr
        {
          OFFSET -8.77824 -1.95073 1.46304
          CHANNELS 3 Zrotation Xrotation Yrotation
          JOINT rForeArm
          {
            OFFSET -28.1742 -1.7115 0.48768
            CHANNELS 3 Zrotation Xrotation Yrotation
            JOINT rHand
            {
              OFFSET -22.5879 0.773209 7.07136
              CHANNELS 3 Zrotation Xrotation Yrotation
              JOINT rThumb1
              {
                OFFSET -1.2192 -0.487915 3.41376
                CHANNELS 3 Zrotation Xrotation Yrotation
                JOINT rThumb2
                {
                  OFFSET -3.37035 -0.52449 3.41376
                  CHANNELS 3 Zrotation Xrotation Yrotation
                  End Site
                  {
                    OFFSET -1.78271 -1.18214 1.43049
                  }
                }
              }
              JOINT rIndex1
              {
                OFFSET -7.75947 0.938293 5.60832
                CHANNELS 3 Zrotation Xrotation Yrotation
                JOINT rIndex2
                {
                  OFFSET -2.54057 -0.884171 1.56538
                  CHANNELS 3 Zrotation Xrotation Yrotation
                  End Site
                  {
                    OFFSET -1.62519 -0.234802 1.16502
                  }
                }
              }
              JOINT rMid1
              {
                OFFSET -8.24714 1.18213 3.41376
                CHANNELS 3 Zrotation Xrotation Yrotation
                JOINT rMid2
                {
                  OFFSET -3.10165 -0.590103 1.0647
                  CHANNELS 3 Zrotation Xrotation Yrotation
                  End Site
                  {
                    OFFSET -2.48547 -0.328903 0.83742
                  }
                }
              }
              JOINT rRing1
              {
                OFFSET -8.82822 0.546677 1.51678
                CHANNELS 3 Zrotation Xrotation Yrotation
                JOINT rRing2
                {
                  OFFSET -2.60934 -0.819778 -0.0198488
                  CHANNELS 3 Zrotation Xrotation Yrotation
                  End Site
                  {
                    OFFSET -2.33842 -0.294052 0.168128
                  }
                }
              }
              JOINT rPinky1
              {
                OFFSET -8.27202 -0.0477905 -0.4584
                CHANNELS 3 Zrotation Xrotation Yrotation
                JOINT rPinky2
                {
                  OFFSET -1.82734 -0.647385 -0.700984
                  CHANNELS 3 Zrotation Xrotation Yrotation
                  End Site
                  {
                    OFFSET -1.69225 -0.51767 -0.607171
                  }
                }
              }
            }
          }
        }
      }
      JOINT lCollar
      {
        OFFSET 2.68224 19.2634 -4.8768
        CHANNELS 3 Zrotation Xrotation Yrotation
        JOINT lShldr
        {
          OFFSET 8.77824 -1.95073 1.46304
          CHANNELS 3 Zrotation Xrotation Yrotation
          JOINT lForeArm
          {
            OFFSET 28.1742 -1.7115 0.48768
            CHANNELS 3 Zrotation Xrotation Yrotation
            JOINT lHand
            {
              OFFSET 22.5879 0.773209 7.07136
              CHANNELS 3 Zrotation Xrotation Yrotation
              JOINT lThumb1
              {
                OFFSET 1.2192 -0.487915 3.41376
                CHANNELS 3 Zrotation Xrotation Yrotation
                JOINT lThumb2
                {
                  OFFSET 3.37035 -0.52449 3.41376
                  CHANNELS 3 Zrotation Xrotation Yrotation
                  End Site
                  {
                    OFFSET 1.78271 -1.18214 1.43049
                  }
                }
              }
              JOINT lIndex1
              {
                OFFSET 7.75947 0.938293 5.60832
                CHANNELS 3 Zrotation Xrotation Yrotation
                JOINT lIndex2
                {
                  OFFSET 2.54057 -0.884171 1.56538
                  CHANNELS 3 Zrotation Xrotation Yrotation
                  End Site
                  {
                    OFFSET 1.62519 -0.234802 1.16502
                  }
                }
              }
              JOINT lMid1
              {
                OFFSET 8.24714 1.18213 3.41376
                CHANNELS 3 Zrotation Xrotation Yrotation
                JOINT lMid2
                {
                  OFFSET 3.10165 -0.590103 1.0647
                  CHANNELS 3 Zrotation Xrotation Yrotation
                  End Site
                  {
                    OFFSET 2.48547 -0.328903 0.83742
                  }
                }
              }
              JOINT lRing1
              {
                OFFSET 8.82822 0.546677 1.51678
                CHANNELS 3 Zrotation Xrotation Yrotation
                JOINT lRing2
                {
                  OFFSET 2.60934 -0.819778 -0.0198488
                  CHANNELS 3 Zrotation Xrotation Yrotation
                  End Site
                  {
                    OFFSET 2.33842 -0.294052 0.168128
                  }
                }
              }
              JOINT lPinky1
              {
                OFFSET 8.27202 -0.0477905 -0.4584
                CHANNELS 3 Zrotation Xrotation Yrotation
                JOINT lPinky2
                {
                  OFFSET 1.82734 -0.647385 -0.700984
                  CHANNELS 3 Zrotation Xrotation Yrotation
                  End Site
                  {
                    OFFSET 1.69225 -0.51767 -0.607171
                  }
                }
              }
            }
          }
        }
      }
    }
  }
  JOINT rButtock
  {
    OFFSET -8.77824 4.35084 1.2192
    CHANNELS 3 Zrotation Xrotation Yrotation
    JOINT rThigh
    {
      OFFSET 0 -1.70687 -2.19456
      CHANNELS 3 Zrotation Xrotation Yrotation
      JOINT rShin
      {
        OFFSET 0 -36.8199 0.73152
        CHANNELS 3 Zrotation Xrotation Yrotation
        JOINT rFoot
        {
          OFFSET 0.73152 -45.1104 -5.12064
          CHANNELS 3 Zrotation Xrotation Yrotation
          End Site
          {
            OFFSET -1.1221 -3.69964 12.103
          }
        }
      }
    }
  }
  JOINT lButtock
  {
    OFFSET 8.77824 4.35084 1.2192
    CHANNELS 3 Zrotation Xrotation Yrotation
    JOINT lThigh
    {
      OFFSET 0 -1.70687 -2.19456
      CHANNELS 3 Zrotation Xrotation Yrotation
      JOINT lShin
      {
        OFFSET 0 -36.8199 0.73152
        CHANNELS 3 Zrotation Xrotation Yrotation
        JOINT lFoot
        {
          OFFSET -0.73152 -45.1104 -5.12064
          CHANNELS 3 Zrotation Xrotation Yrotation
          End Site
          {
            OFFSET 1.1221 -3.69964 12.103
          }
        }
      }
    }
  }
}
MOTION
Frames:	9
Frame Time:	0.00833333
4.00085 83.9933 58.5392 0.0 0.0 0.0 -1.70621 -0.002545 -0.0464501 -0.47056 0.0024273 -0.0814847 -1.14195e-14 0.0 3.47873e-16 -3.39766e-14 3.18055e-15 1.04051e-15 -0.0 0.0 0.0 -0.0 0.0 0.0 -5.61735e-15 -3.02836e-17 2.98177e-16 -1.16947e-13 -1.30452e-16 4.17448e-15 -2.04823e-12 5.90589e-13 8.26944e-14 -2.3432e-11 -7.2047e-13 7.4425e-13 -5.52739e-11 -2.88675e-13 1.80974e-12 -9.54644e-11 -5.02528e-13 3.11615e-12 -5.52705e-11 -2.86647e-13 1.79065e-12 7.73091 5.47488 0.417314 -5.52734e-11 -2.88536e-13 1.80656e-12 2.90554 0.965183 0.102902 -5.52755e-11 -2.88834e-13 1.80417e-12 10.2786 0.731801 0.0259123 -5.52768e-11 -2.88238e-13 1.81292e-12 2.22167 -0.733487 -0.20892 -5.71375e-15 -3.06719e-17 0.0 -1.20082e-13 -5.40446e-16 2.5842e-15 -2.04758e-12 -6.31141e-13 1.04958e-13 -2.34172e-11 4.97409e-13 7.37889e-13 -5.52394e-11 -2.93627e-13 1.81292e-12 -9.53872e-11 -5.05708e-13 3.14159e-12 -5.52462e-11 -2.91418e-13 1.82564e-12 -7.73091 5.47488 -0.417314 -5.52391e-11 -2.93804e-13 1.81292e-12 -2.90554 0.965183 -0.102902 -5.52472e-11 -2.93506e-13 1.81928e-12 -10.2786 0.731801 -0.0259123 -5.52417e-11 -2.92611e-13 1.81928e-12 -2.22167 -0.733487 0.20892 -2.03217e-16 0.0 -3.88251e-19 -0.810677 -1.92439 -0.00361196 -0.00901485 -2.07859 -0.0743076 -0.483789 3.99775 0.136126 2.03217e-16 0.0 3.88251e-19 -1.78656 -6.8542 0.170484 -0.00323759 6.85137 -0.0863812 0.513117 -0.00230601 -0.0582027
3.12457 82.5645 50.7126 -179.439 -2.8976 -174.41 -2.89142 -0.271806 -0.0395753 0.814665 -0.0627041 -0.0820689 -2.32024 -0.904226 0.168655 1.00257 5.88197 -0.505193 -0.0 0.0 0.0 -0.0 0.0 0.0 -3.02861e-14 -2.44664e-14 4.76955e-14 21.4776 4.91547 -0.390237 -4.89956 -2.38063 7.47761 0.072011 5.95852 0.821147 -2.42043e-10 6.07631e-11 2.33416e-10 -4.13635e-10 9.85059e-11 4.07111e-10 -2.42039e-10 6.07642e-11 2.33401e-10 7.73091 5.47488 0.417314 -2.42043e-10 6.07625e-11 2.33414e-10 2.90554 0.965183 0.102902 -2.42043e-10 6.07628e-11 2.33412e-10 10.2786 0.731801 0.0259123 -2.42048e-10 6.07649e-11 2.33419e-10 2.22167 -0.733487 -0.20892 -3.03755e-14 -2.44667e-14 4.74233e-14 -22.4091 4.83678 -1.2677 3.78216 -1.63982 -5.98998 -0.0193613 3.08735 -0.431625 -1.00505e-10 -2.70085e-10 2.55955e-11 -1.73732e-10 -4.66635e-10 4.49307e-11 -1.00512e-10 -2.70084e-10 2.56074e-11 -7.73091 5.47488 -0.417314 -1.00504e-10 -2.70086e-10 2.55966e-11 -2.90554 0.965183 -0.102902 -1.00513e-10 -2.70086e-10 2.56012e-11 -10.2786 0.731801 -0.0259123 -1.00506e-10 -2.70086e-10 2.55994e-11 -2.22167 -0.733487 0.20892 -2.03217e-16 0.0 -3.88251e-19 -1.47767 -6.36101 0.839375 0.0112162 6.35293 0.0825839 -0.696049 -1.53516 -1.78441 2.03217e-16 0.0 3.88251e-19 -1.93227 -9.43404 -0.0980402 -0.0209638 12.158 -0.170289 0.54641 -3.42555 0.388103
3.11904 82.5681 50.7078 -179.444 -2.9772 -174.437 -4.14212 -0.558025 -0.0323622 2.17207 -0.130686 -0.0827261 -4.76482 -1.86033 0.347458 2.17449 12.1005 -1.05744 -0.0 0.0 0.0 -0.0 0.0 0.0 -5.75238e-14 -5.31387e-14 9.87618e-14 44.2566 10.1066 -0.814176 -9.40769 -4.7607 15.4209 -0.0414972 12.2542 1.71938 -4.43984e-10 1.16126e-10 4.96981e-10 -7.57408e-10 1.86953e-10 8.66631e-10 -4.43978e-10 1.16126e-10 4.96971e-10 7.73091 5.47488 0.417314 -4.43983e-10 1.16124e-10 4.96981e-10 2.90554 0.965183 0.102902 -4.43982e-10 1.16125e-10 4.9698e-10 10.2786 0.731801 0.0259123 -4.4399e-10 1.16129e-10 4.96983e-10 2.22167 -0.733487 -0.20892 -5.76074e-14 -5.31389e-14 9.85164e-14 -45.8644 9.94476 -2.63874 7.41134 -3.31459 -12.3403 0.0110388 6.35227 -0.892345 -1.41181e-10 -5.59507e-10 4.22022e-11 -2.44261e-10 -9.66762e-10 7.42985e-11 -1.41189e-10 -5.59507e-10 4.22133e-11 -7.73091 5.47488 -0.417314 -1.4118e-10 -5.59509e-10 4.22046e-11 -2.90554 0.965183 -0.102902 -1.4119e-10 -5.59508e-10 4.22074e-11 -10.2786 0.731801 -0.0259123 -1.4118e-10 -5.59509e-10 4.22036e-11 -2.22167 -0.733487 0.20892 -2.03217e-16 0.0 -3.88251e-19 -2.03665 -11.0476 1.75042 -0.0189726 15.2662 0.256354 -1.3254 -7.3674 -3.84233 2.03217e-16 0.0 3.88251e-19 -2.11033 -12.1613 -0.383478 -0.0220231 17.7688 -0.264406 0.63968 -7.04557 0.863181
3.12634 82.5728 50.6944 -179.393 -3.0363 -174.503 -5.26165 -0.810327 -0.025827 3.38511 -0.192967 -0.0832375 -6.94475 -2.71258 0.506471 3.3319 17.6403 -1.582 -0.0 0.0 0.0 -0.0 0.0 0.0 -7.96235e-14 -7.33387e-14 1.4249e-13 64.6396 14.7436 -1.20612 -12.8769 -6.65636 22.5738 -0.318235 17.8605 2.57427 -6.15582e-10 1.82867e-10 6.96627e-10 -1.04998e-09 2.96523e-10 1.2151e-09 -6.15576e-10 1.82866e-10 6.96621e-10 7.73091 5.47488 0.417314 -6.15581e-10 1.82865e-10 6.96629e-10 2.90554 0.965183 0.102902 -6.15579e-10 1.82866e-10 6.96628e-10 10.2786 0.731801 0.0259123 -6.15589e-10 1.82871e-10 6.9663e-10 2.22167 -0.733487 -0.20892 -7.96991e-14 -7.33388e-14 1.4227e-13 -66.5677 14.4814 -3.9141 10.3337 -4.7048 -18.0254 0.0830189 9.25992 -1.31007 -1.91035e-10 -8.09668e-10 7.31606e-11 -3.3042e-10 -1.39889e-09 1.28509e-10 -1.91044e-10 -8.0967e-10 7.3171e-11 -7.73091 5.47488 -0.417314 -1.91035e-10 -8.09671e-10 7.31639e-11 -2.90554 0.965183 -0.102902 -1.91045e-10 -8.09671e-10 7.31651e-11 -10.2786 0.731801 -0.0259123 -1.91033e-10 -8.09671e-10 7.31596e-11 -2.22167 -0.733487 0.20892 -2.03217e-16 0.0 -3.88251e-19 -2.40756 -15.2213 2.60115 -0.0956155 23.2154 0.429527 -2.25107 -12.5416 -5.7608 2.03217e-16 0.0 3.88251e-19 -2.29846 -14.5928 -0.649631 -0.00576512 22.7711 -0.355595 0.77513 -10.2697 1.29946
3.13027 82.5744 50.6922 -179.36 -3.0935 -174.518 -6.05339 -0.977835 -0.020986 4.23727 -0.240994 -0.0833843 -8.47441 -3.30531 0.615524 4.21933 21.4883 -1.97413 -0.0 0.0 0.0 -0.0 0.0 0.0 -8.88784e-14 -7.2358e-14 1.67874e-13 78.8836 17.9982 -1.48422 -15.0137 -7.80214 27.6168 -0.618125 21.7575 3.21549 -7.11325e-10 2.78054e-10 7.36477e-10 -1.21453e-09 4.589e-10 1.28594e-09 -7.11318e-10 2.78053e-10 7.36473e-10 7.73091 5.47488 0.417314 -7.11324e-10 2.78052e-10 7.3648e-10 2.90554 0.965183 0.102902 -7.11321e-10 2.78053e-10 7.36479e-10 10.2786 0.731801 0.0259123 -7.11332e-10 2.78059e-10 7.3648e-10 2.22167 -0.733487 -0.20892 -8.89403e-14 -7.2358e-14 1.67675e-13 -80.8638 17.6174 -4.8443 12.1984 -5.58875 -21.9944 0.15854 11.2764 -1.60579 -2.63837e-10 -9.61679e-10 1.39998e-10 -4.55653e-10 -1.66104e-09 2.44826e-10 -2.63845e-10 -9.61681e-10 1.40008e-10 -7.73091 5.47488 -0.417314 -2.63836e-10 -9.61682e-10 1.40002e-10 -2.90554 0.965183 -0.102902 -2.63847e-10 -9.61682e-10 1.40002e-10 -10.2786 0.731801 -0.0259123 -2.63833e-10 -9.61682e-10 1.39995e-10 -2.22167 -0.733487 0.20892 -2.03217e-16 0.0 -3.88251e-19 -2.59624 -18.1246 3.23251 -0.181732 28.755 0.567718 -3.11661 -16.1305 -7.18324 2.03217e-16 0.0 3.88251e-19 -2.45979 -16.2853 -0.855933 0.0167639 26.2523 -0.424677 0.901763 -12.5063 1.62087
3.11724 82.5739 50.6961 -179.392 -3.0919 -174.492 -6.39546 -1.02455 -0.0176306 4.58833 -0.265078 -0.0828996 -9.09962 -3.53464 0.653295 4.61025 22.9649 -2.1321 -0.0 0.0 0.0 -0.0 0.0 0.0 -7.89423e-14 -3.88358e-14 1.67218e-13 84.4583 19.3235 -1.57388 -15.8045 -8.21474 29.6328 -0.761336 23.2786 3.47925 -7.00313e-10 4.26498e-10 5.30518e-10 -1.19936e-09 7.18804e-10 9.29889e-10 -7.00308e-10 4.265e-10 5.30515e-10 7.73091 5.47488 0.417314 -7.00314e-10 4.26498e-10 5.30521e-10 2.90554 0.965183 0.102902 -7.0031e-10 4.265e-10 5.30521e-10 10.2786 0.731801 0.0259123 -7.00319e-10 4.26505e-10 5.30523e-10 2.22167 -0.733487 -0.20892 -7.89764e-14 -3.88356e-14 1.67039e-13 -86.4128 18.8071 -5.22233 12.8794 -5.9037 -23.5252 0.193158 12.0427 -1.7198 -3.80582e-10 -9.8772e-10 2.59669e-10 -6.55955e-10 -1.70496e-09 4.52683e-10 -3.80591e-10 -9.87723e-10 2.59678e-10 -7.73091 5.47488 -0.417314 -3.80583e-10 -9.87724e-10 2.5967e-10 -2.90554 0.965183 -0.102902 -3.80592e-10 -9.87724e-10 2.5967e-10 -10.2786 0.731801 -0.0259123 -3.80578e-10 -9.87722e-10 2.59664e-10 -2.22167 -0.733487 0.20892 -2.03217e-16 0.0 -3.88251e-19 -2.67161 -19.2571 3.51213 -0.223971 30.9238 0.627723 -3.52132 -17.5487 -7.79449 2.03217e-16 0.0 3.88251e-19 -2.56625 -16.9393 -0.971799 0.029838 27.6002 -0.453103 0.964407 -13.3579 1.77171
3.09878 82.574 50.6976 -179.435 -3.0926 -174.479 -6.41591 -0.985081 -0.0153786 4.58127 -0.272247 -0.0819696 -9.07987 -3.50443 0.640103 4.61771 22.7492 -2.1083 -0.0 0.0 0.0 -0.0 0.0 0.0 -5.53558e-14 1.77929e-14 1.4798e-13 83.824 19.2711 -1.52175 -15.7462 -8.19477 29.4688 -0.744399 23.1056 3.44886 -6.13075e-10 6.12344e-10 1.50034e-10 -1.05584e-09 1.04725e-09 2.70742e-10 -6.13072e-10 6.12349e-10 1.5003e-10 7.73091 5.47488 0.417314 -6.13078e-10 6.12348e-10 1.50035e-10 2.90554 0.965183 0.102902 -6.13074e-10 6.12348e-10 1.50037e-10 10.2786 0.731801 0.0259123 -6.13079e-10 6.12352e-10 1.50042e-10 2.22167 -0.733487 -0.20892 -5.53523e-14 1.77932e-14 1.47818e-13 -85.7684 18.6127 -5.18263 12.7803 -5.85219 -23.3063 0.18784 11.9167 -1.70107 -5.28152e-10 -9.23239e-10 4.16953e-10 -9.08908e-10 -1.59207e-09 7.25707e-10 -5.28163e-10 -9.23243e-10 4.16961e-10 -7.73091 5.47488 -0.417314 -5.28156e-10 -9.23243e-10 4.16951e-10 -2.90554 0.965183 -0.102902 -5.28163e-10 -9.23243e-10 4.16951e-10 -10.2786 0.731801 -0.0259123 -5.28149e-10 -9.23238e-10 4.16946e-10 -2.22167 -0.733487 0.20892 -2.03217e-16 0.0 -3.88251e-19 -2.70028 -19.1274 3.52594 -0.218993 30.685 0.621939 -3.50152 -17.4308 -7.78713 2.03217e-16 0.0 3.88251e-19 -2.62663 -16.8517 -1.02088 0.0313319 27.4246 -0.449649 0.968123 -13.2209 1.79661
3.07529 82.5752 50.6958 -179.48 -3.1401 -174.487 -6.29306 -0.914473 -0.0149869 4.42432 -0.279036 -0.0810548 -8.80068 -3.37059 0.608134 4.47813 21.8678 -2.01385 -0.0 0.0 0.0 -0.0 0.0 0.0 -2.82423e-14 7.90423e-14 1.21879e-13 80.7128 18.6608 -1.41982 -15.3484 -8.00174 28.4294 -0.662922 22.2448 3.29923 -4.96236e-10 7.91657e-10 -2.64913e-10 -8.61792e-10 1.36535e-09 -4.48521e-10 -4.96234e-10 7.91665e-10 -2.64918e-10 7.73091 5.47488 0.417314 -4.9624e-10 7.91663e-10 -2.64912e-10 2.90554 0.965183 0.102902 -4.96236e-10 7.91664e-10 -2.64909e-10 10.2786 0.731801 0.0259123 -4.96238e-10 7.91665e-10 -2.64901e-10 2.22167 -0.733487 -0.20892 -2.82074e-14 7.90428e-14 1.21729e-13 -82.6472 17.8732 -4.96295 12.3709 -5.65524 -22.3936 0.166993 11.44 -1.63023 -6.69143e-10 -8.04241e-10 5.8512e-10 -1.15034e-09 -1.38483e-09 1.01745e-09 -6.69155e-10 -8.04245e-10 5.85127e-10 -7.73091 5.47488 -0.417314 -6.69149e-10 -8.04245e-10 5.85116e-10 -2.90554 0.965183 -0.102902 -6.69154e-10 -8.04245e-10 5.85115e-10 -10.2786 0.731801 -0.0259123 -6.6914e-10 -8.04238e-10 5.85112e-10 -2.22167 -0.733487 0.20892 -2.03217e-16 0.0 -3.88251e-19 -2.70302 -18.4939 3.4281 -0.195063 29.4797 0.589649 -3.30637 -16.6958 -7.52291 2.03217e-16 0.0 3.88251e-19 -2.65677 -16.4751 -1.04239 0.0275199 26.6457 -0.433489 0.946049 -12.6951 1.76598
3.06244 82.5765 50.691 -179.476 -3.1726 -174.507 -6.20521 -0.867769 -0.0172119 4.32571 -0.301975 -0.0806155 -8.64757 -3.28903 0.589571 4.42836 21.3474 -1.96009 -0.0 0.0 0.0 -0.0 0.0 0.0 -7.72486e-15 1.26427e-13 1.00635e-13 78.856 18.3125 -1.35996 -15.1126 -7.88821 27.8207 -0.614775 21.702 3.20644 -3.96421e-10 9.20503e-10 -5.74259e-10 -6.95045e-10 1.59424e-09 -9.84914e-10 -3.96418e-10 9.20511e-10 -5.74265e-10 7.73091 5.47488 0.417314 -3.96424e-10 9.20509e-10 -5.74259e-10 2.90554 0.965183 0.102902 -3.96422e-10 9.2051e-10 -5.74256e-10 10.2786 0.731801 0.0259123 -3.96422e-10 9.2051e-10 -5.74246e-10 2.22167 -0.733487 -0.20892 -7.68146e-15 1.26427e-13 1.00486e-13 -80.7636 17.4273 -4.80169 12.1202 -5.53327 -21.8427 0.155075 11.1545 -1.58797 -7.66148e-10 -6.66733e-10 7.3744e-10 -1.31606e-09 -1.1457e-09 1.28147e-09 -7.66159e-10 -6.66737e-10 7.37447e-10 -7.73091 5.47488 -0.417314 -7.66154e-10 -6.66737e-10 7.37434e-10 -2.90554 0.965183 -0.102902 -7.66158e-10 -6.66737e-10 7.37433e-10 -10.2786 0.731801 -0.0259123 -7.66145e-10 -6.66729e-10 7.37431e-10 -2.22167 -0.733487 0.20892 -2.03217e-16 0.0 -3.88251e-19 -2.69674 -18.115 3.37417 -0.181317 28.749 0.570683 -3.1942 -16.261 -7.36716 2.03217e-16 0.0 3.88251e-19 -2.67458 -16.2615 -1.07612 0.0248433 26.1835 -0.423895 0.933361 -12.3803 1.75069
